<svg xmlns="http://www.w3.org/2000/svg" viewBox="0 0 380.01 28.08"><defs><style>.cls-1{fill:#f4954e;}</style></defs><g id="Layer_2" data-name="Layer 2"><g id="graphics"><path class="cls-1" d="M197.36,26.19c0,.27-.15.4-.46.4-.57,0-1.72-.63-3.46-1.89a23.24,23.24,0,0,1-6.85-8.18q-2.31,3.38-2.31,10.65a1.8,1.8,0,0,0,0,.27v.21c0,.19-.23.32-.67.4q-2,0-2.28-.06c-.47-.09-.7-.3-.7-.64a3.37,3.37,0,0,1,.06-.44,3.8,3.8,0,0,0,.06-.63,23,23,0,0,0-.39-3.16,58.52,58.52,0,0,0-1.74-7.27l-.24.12a17.79,17.79,0,0,1-4.72,7.39,14.47,14.47,0,0,1-2.89,2.31,4.32,4.32,0,0,1-2,.76,1.45,1.45,0,0,1-.6-.15v-.39a14.1,14.1,0,0,0,6-4.32,18.31,18.31,0,0,0,3.8-7.49,34.29,34.29,0,0,0-3.33-7,15.14,15.14,0,0,0-4.37-4.85L168.43,1c0-.23.16-.34.49-.34a5.14,5.14,0,0,1,1.79.7,29.05,29.05,0,0,1,3.77,2.34,21.92,21.92,0,0,1,5.78,6.6,13.57,13.57,0,0,0,2.25-6.54,20.11,20.11,0,0,0,.4-2.74c0-.46.14-.74.32-.82A7.48,7.48,0,0,1,185,0l.12,0h.12c.37,0,.6.27.7.79.12.87.24,1.75.37,2.65a47.61,47.61,0,0,0,2,7.57,5.53,5.53,0,0,0,.8-1.46,17.56,17.56,0,0,1,1.7-3,24.56,24.56,0,0,1,4-4.53,6.1,6.1,0,0,1,1.8-1.25c.14,0,.32.14.55.43l0,0L196,2.13a18.4,18.4,0,0,0-3.16,3.1,22.06,22.06,0,0,0-2.86,4.35,7.3,7.3,0,0,0-.89,2.89,12.47,12.47,0,0,0,.89,3.87,27.05,27.05,0,0,0,2.73,5.56,9.14,9.14,0,0,0,3.2,3.26C196.86,25.68,197.36,26,197.36,26.19ZM186,15.39q0,.25-2.22-6.63c-.12-.38-.26-.91-.42-1.58-.08-.35-.17-.52-.25-.52s-.4.79-1.15,2.38c-.23.44-.51.94-.86,1.49a2.54,2.54,0,0,0-.39.73s.32.86,1,2.46A51.11,51.11,0,0,1,183.79,20C185.29,17,186,15.47,186,15.39Z"/><path class="cls-1" d="M168.61,4.24c-5.93-5.58-19.45-5.17-22.29,3.45C143,17.72,158.38,24,163.55,16a4.71,4.71,0,0,0,.6-1.06c.7-1.85.09-3.81-1.38-4.37s-3.22.49-3.93,2.33a4,4,0,0,0-.06,2.84,2.28,2.28,0,0,1-1.93,1.68c-2.84.65-5-2-5.88-3.78a7.81,7.81,0,0,1,1.16-8.46c4.75-5.52,14.15-1.45,15.59,5.57S164,24.38,157.49,26c-7.84,2-16.57-5.65-18.36-13.15-.2-.85-1.56-1-2.28-1L2.1,12.13C-.62,12.13-.75,14,2,14l132.85.26C138.16,24.1,149,29.55,159,27.73,169.57,25.83,177.6,12.68,168.61,4.24Z"/><path class="cls-1" d="M198,4.24c5.93-5.58,19.45-5.17,22.29,3.45,3.31,10-12.06,16.32-17.22,8.34a4.38,4.38,0,0,1-.61-1.06c-.7-1.85-.09-3.81,1.38-4.37s3.22.49,3.93,2.33a4,4,0,0,1,.06,2.84,2.28,2.28,0,0,0,1.93,1.68c2.84.65,5-2,5.88-3.78a7.79,7.79,0,0,0-1.17-8.46c-4.74-5.52-14.14-1.45-15.58,5.57S202.55,24.38,209.1,26c7.84,2,16.57-5.65,18.36-13.15.2-.85,1.56-1,2.28-1l148.16.31c2.72,0,2.86,1.86.09,1.86l-146.26.26c-3.3,9.85-14.11,15.3-24.18,13.48C197,25.83,189,12.68,198,4.24Z"/></g></g></svg>