<svg xmlns="http://www.w3.org/2000/svg" viewBox="0 0 989.7 22.62"><defs><style>.cls-1{fill:#f4954e;}.cls-2{fill:#fff;stroke:#f4954e;stroke-miterlimit:10;stroke-width:0.75px;}</style></defs><g id="Layer_2" data-name="Layer 2"><g id="graphics"><path class="cls-1" d="M493.46,22.28c-1.5-2.68-4.81-9.78.24-12.51a.67.67,0,0,1,.63,0c1.16.65,4.71,3.49.3,12.47A.66.66,0,0,1,493.46,22.28Z"/><path class="cls-1" d="M504.14,15.41a1.64,1.64,0,0,0-.64-1.36,4.3,4.3,0,0,0-1.62-.88l-.6-.14c-.23,0-.5-.11-.77-.19a4.6,4.6,0,0,1-1.6-.76,4.06,4.06,0,0,1-.65-.66l-.13-.18c-.05-.06-.08-.13-.13-.19s-.14-.24-.21-.35l-.32-.58c-.08-.14-.15-.23-.21-.23s-.11.09-.18.25a1.36,1.36,0,0,0-.11.29c0,.12-.07.25-.09.4s0,.31-.05.49a2.8,2.8,0,0,0,0,.29v.3a4.84,4.84,0,0,0,1.09,2.63,6.36,6.36,0,0,0,1.05,1,7.84,7.84,0,0,0,1,.67,5,5,0,0,0,.82.35,3.56,3.56,0,0,0,2.28,0A1.47,1.47,0,0,0,504.14,15.41Z"/><path class="cls-1" d="M501.74,5.62a.51.51,0,0,0,.28-.35,1.07,1.07,0,0,0-.09-.7,1.86,1.86,0,0,0-.75-.79,2.3,2.3,0,0,0-1.28-.28,2.68,2.68,0,0,0-.83.2,3.16,3.16,0,0,0-.91.56,3.78,3.78,0,0,0-.73.86,4,4,0,0,0-.46,1,5.15,5.15,0,0,0-.16,1,3.08,3.08,0,0,0,0,.43c0,.13,0,.26,0,.37s0,.21.05.3a1.94,1.94,0,0,0,.07.22c0,.13.08.19.12.19s.07-.06.11-.18l.19-.47.13-.31.16-.32a4.66,4.66,0,0,1,.43-.66,3.13,3.13,0,0,1,.54-.55,3.08,3.08,0,0,1,.58-.35,2.08,2.08,0,0,1,.49-.14H500l.39,0h.41A1.84,1.84,0,0,0,501.74,5.62Z"/><path class="cls-1" d="M496,4.82A11.06,11.06,0,0,0,495,8.59a0,0,0,0,1,0,0h-2a0,0,0,0,1,0,0,10.88,10.88,0,0,0-1.06-3.77s1.64-2.32,2-2.81A.09.09,0,0,1,494,2C494.39,2.5,496,4.81,496,4.82Z"/><path class="cls-1" d="M483.61,15.41a1.66,1.66,0,0,1,.64-1.36,4.34,4.34,0,0,1,1.63-.88l.59-.14c.24,0,.5-.11.77-.19a4.52,4.52,0,0,0,1.6-.76,4.06,4.06,0,0,0,.65-.66l.14-.18.12-.19c.08-.12.15-.24.21-.35l.32-.58c.08-.14.16-.23.21-.23s.11.09.18.25a1.36,1.36,0,0,1,.11.29,3.42,3.42,0,0,1,.09.4,3.52,3.52,0,0,1,.05.49c0,.09,0,.19,0,.29l0,.3a4.67,4.67,0,0,1-.32,1.33,5.07,5.07,0,0,1-.77,1.3,6.36,6.36,0,0,1-1.05,1,7.2,7.2,0,0,1-1,.67,5.41,5.41,0,0,1-.83.35,3.56,3.56,0,0,1-2.28,0A1.49,1.49,0,0,1,483.61,15.41Z"/><path class="cls-1" d="M486,5.62a.5.5,0,0,1-.29-.35,1.09,1.09,0,0,1,.1-.7,1.78,1.78,0,0,1,.74-.79,2.32,2.32,0,0,1,1.29-.28,2.63,2.63,0,0,1,.82.2,3,3,0,0,1,.91.56,3.82,3.82,0,0,1,.74.86,4.35,4.35,0,0,1,.45,1,4.5,4.5,0,0,1,.17,1v.43c0,.13,0,.26,0,.37l-.06.3a1,1,0,0,1-.07.22c0,.13-.08.19-.11.19s-.07-.06-.12-.18L490.38,8c0-.1-.09-.2-.13-.31l-.17-.32a4.59,4.59,0,0,0-.42-.66,3.57,3.57,0,0,0-.55-.55,2.56,2.56,0,0,0-.58-.35,1.85,1.85,0,0,0-.49-.14h-.32l-.4,0h-.41A1.8,1.8,0,0,1,486,5.62Z"/><path class="cls-1" d="M524.26,14.41l.44.37a8,8,0,0,0,1.42.86,7.76,7.76,0,0,0,2.56.69,7,7,0,0,0,3.49-.61,6.57,6.57,0,0,0,1.73-1.2,6.9,6.9,0,0,0,1.32-1.88,8.6,8.6,0,0,0,.71-2.34A9.37,9.37,0,0,0,536,7.7a7.81,7.81,0,0,0-.8-2.64,8.22,8.22,0,0,0-1.74-2.3A10.32,10.32,0,0,0,528.12.12,8,8,0,0,0,526.57,0a7,7,0,0,0-.79.06c-.25,0-.49.08-.73.13a20.69,20.69,0,0,0-2.79.7,34.69,34.69,0,0,0-5,2.11c-3,1.55-5.64,3.14-7.91,4.3-1.14.57-2.18,1.09-3.11,1.45a7,7,0,0,1-2.5.55,2.87,2.87,0,0,1-1.55-.39,1.57,1.57,0,0,1-.34-.25l-.11-.09.1.1a1.78,1.78,0,0,0,.33.28,2.84,2.84,0,0,0,1.57.53,7.07,7.07,0,0,0,2.61-.39,32,32,0,0,0,3.25-1.27c2.36-1,5-2.51,8.09-3.95a37.41,37.41,0,0,1,4.87-1.93,21,21,0,0,1,2.66-.63l.68-.12c.22,0,.43,0,.66,0a6.8,6.8,0,0,1,1.34.11,9.56,9.56,0,0,1,4.78,2.3A7.29,7.29,0,0,1,535,7.83a9.25,9.25,0,0,1,0,2.35,7.67,7.67,0,0,1-.56,2.13A6,6,0,0,1,533.41,14a5.7,5.7,0,0,1-1.5,1.17,6.51,6.51,0,0,1-3.21.75,7.26,7.26,0,0,1-2.51-.49,8.11,8.11,0,0,1-1.46-.73Z"/><path class="cls-1" d="M524.13,6l-.23-.08-.27-.11-.4-.08a7.7,7.7,0,0,0-2.56,0,23.92,23.92,0,0,0-7.89,2.94,41.82,41.82,0,0,1-4,2.13,10.57,10.57,0,0,1-3.51.9,3.78,3.78,0,0,1-2.34-.52l-.32-.22c-.09-.07-.15-.15-.21-.2l-.17-.17.14.19a2.48,2.48,0,0,0,.18.24l.29.28a4,4,0,0,0,2.43.87,10.24,10.24,0,0,0,3.78-.64,28.73,28.73,0,0,0,4.18-2,32.83,32.83,0,0,1,7.52-3.29,8.32,8.32,0,0,1,2.46-.32c.14,0,.28,0,.39,0l.28,0Z"/><path class="cls-1" d="M464.59,14.41l-.47.33a7.78,7.78,0,0,1-1.46.73,7.24,7.24,0,0,1-2.5.49,6.49,6.49,0,0,1-3.21-.75,5.54,5.54,0,0,1-1.5-1.17,6,6,0,0,1-1.1-1.73,7.66,7.66,0,0,1-.55-2.13,8.81,8.81,0,0,1,0-2.35,7.18,7.18,0,0,1,2.33-4.27,9.53,9.53,0,0,1,4.77-2.3,6.9,6.9,0,0,1,1.35-.11c.22,0,.44,0,.65,0l.68.12a21.18,21.18,0,0,1,2.67.63,38,38,0,0,1,4.87,1.93c3,1.44,5.73,2.91,8.09,4a31.92,31.92,0,0,0,3.24,1.27,7.12,7.12,0,0,0,2.62.39A2.87,2.87,0,0,0,486.66,9a2,2,0,0,0,.32-.28l.11-.1-.11.09a1.68,1.68,0,0,1-.35.25,2.82,2.82,0,0,1-1.55.39,7,7,0,0,1-2.49-.55c-.94-.36-2-.88-3.11-1.45-2.28-1.16-4.88-2.75-7.92-4.3a34.55,34.55,0,0,0-5-2.11,21.08,21.08,0,0,0-2.79-.7c-.25,0-.48-.1-.74-.13a6.83,6.83,0,0,0-.78-.06,8.2,8.2,0,0,0-1.56.12,10.35,10.35,0,0,0-5.34,2.64,8.38,8.38,0,0,0-1.73,2.3,7.81,7.81,0,0,0-.8,2.64,9.78,9.78,0,0,0,.06,2.6,8.6,8.6,0,0,0,.71,2.34A6.93,6.93,0,0,0,455,14.52a6.41,6.41,0,0,0,1.73,1.2,7,7,0,0,0,3.49.61,7.7,7.7,0,0,0,4-1.55C464.45,14.54,464.59,14.41,464.59,14.41Z"/><path class="cls-1" d="M464.73,6l.23-.05.29,0a3.89,3.89,0,0,1,.39,0,8.36,8.36,0,0,1,2.46.32,33,33,0,0,1,7.52,3.29,28.63,28.63,0,0,0,4.17,2,10.29,10.29,0,0,0,3.79.64,4.07,4.07,0,0,0,2.43-.87l.28-.28a2.79,2.79,0,0,0,.19-.24l.14-.19-.17.17-.21.2-.32.22a3.83,3.83,0,0,1-2.35.52,10.58,10.58,0,0,1-3.5-.9,40.75,40.75,0,0,1-4-2.13,23.8,23.8,0,0,0-7.88-2.94,7.76,7.76,0,0,0-2.57,0l-.39.08L465,5.9Z"/><path class="cls-1" d="M977.23,11.07l1-4.62a.28.28,0,0,0,0-.18l-1.09-4.36a.39.39,0,0,1,.57-.43L981,3.34a13.32,13.32,0,0,0,3.57,1.42l4.82,1.18a.39.39,0,0,1,0,.75L983.8,8.44a11.1,11.1,0,0,0-2.07.88L977.8,11.5A.39.39,0,0,1,977.23,11.07Z"/><path class="cls-1" d="M970.49,8.84a2.36,2.36,0,1,1,2.35-2.36A2.36,2.36,0,0,1,970.49,8.84Z"/><path class="cls-1" d="M541.09,8.84a2.36,2.36,0,1,1,2.35-2.36A2.36,2.36,0,0,1,541.09,8.84Z"/><line class="cls-2" x1="542.07" y1="6.48" x2="968.63" y2="6.48"/><path class="cls-1" d="M12.46,11.07l-1-4.62a.28.28,0,0,1,0-.18l1.09-4.36a.39.39,0,0,0-.57-.43L8.69,3.34A13.45,13.45,0,0,1,5.12,4.76L.3,5.94a.39.39,0,0,0,0,.75L5.89,8.44A11.19,11.19,0,0,1,8,9.32L11.9,11.5A.39.39,0,0,0,12.46,11.07Z"/><path class="cls-1" d="M19.21,8.84a2.36,2.36,0,1,0-2.35-2.36A2.36,2.36,0,0,0,19.21,8.84Z"/><path class="cls-1" d="M448.61,8.84a2.36,2.36,0,1,0-2.35-2.36A2.36,2.36,0,0,0,448.61,8.84Z"/><line class="cls-2" x1="447.62" y1="6.48" x2="21.07" y2="6.48"/></g></g></svg>