<svg xmlns="http://www.w3.org/2000/svg" viewBox="0 0 64.01 77.86"><defs><style>.cls-1{fill:none;stroke:#fff;stroke-linecap:round;stroke-miterlimit:10;}</style></defs><g id="Layer_2" data-name="Layer 2"><g id="Layer_1-2" data-name="Layer 1"><rect class="cls-1" x="41.47" y="24.97" width="9.12" height="19.05" rx="4.56"/><rect class="cls-1" x="32.34" y="22.73" width="9.12" height="19.05" rx="4.56"/><path class="cls-1" d="M23.91,37.27a4.53,4.53,0,0,1-.74-2.49V24.85a4.56,4.56,0,0,1,9.12,0v9.93a4.56,4.56,0,0,1-4.07,4.54"/><path class="cls-1" d="M14,33V23.9a4.56,4.56,0,1,1,9.12,0v9.93a4.57,4.57,0,0,1-.85,2.65"/><path class="cls-1" d="M50.59,37.88c.16,7.16-4.25,23.58-4.25,23.58v15a.94.94,0,0,1-.94.93H18.63a.94.94,0,0,1-.94-.93V61.72"/><path class="cls-1" d="M17.59,61.6S4.94,53.76,6,47.18s5.29-12.72,5.29-12.72,2.54-2.95,6.53-.44,15.39,7.53,15.39,7.53-3.65,5.78-7.64,6a4.63,4.63,0,0,1-.91-.05A33,33,0,0,1,15.29,44"/><path class="cls-1" d="M32.19,61.46c-.2-9.17-5.67-13.57-5.67-13.57"/><path class="cls-1" d="M57.39,21.16c.25,0,6.12-3.5,6.12-3.5"/><path class="cls-1" d="M6.62,21.16c-.25,0-6.12-3.5-6.12-3.5"/><path class="cls-1" d="M18.5,11.18c-.22-.12-3.65-6-3.65-6"/><path class="cls-1" d="M45.58,11.29c.22-.13,3.65-6,3.65-6"/><path class="cls-1" d="M31.85,7.55c.13-.22.12-7,.12-7"/></g></g></svg>