<svg xmlns="http://www.w3.org/2000/svg" viewBox="0 0 1002.34 41.4"><defs><style>.cls-1{fill:#f4954e;}.cls-2{fill:#1a1818;stroke:#f4954e;stroke-miterlimit:10;}</style></defs><g id="Layer_2" data-name="Layer 2"><g id="Layer_11" data-name="Layer 11"><path class="cls-1" d="M996.41,16.7c0-1.52-1.85-2.4-1.85-2.4-2.43,7-15.52,5.55-15.52,5.55,4.08-.1,7.13-3.54,8.79-6.2,1.9-3.05,2.35-9.75-3.92-12.72-6-2.86-10.6,1.55-11.77,4s-1.86,7.39,2.4,9.45,6.73,0,7.57-1.71a3.48,3.48,0,0,0-1.58-4.91c-2.13-1-3.82-.24-4.56,1.28s-.45,2.33.39,3.11a1.1,1.1,0,0,0,1.59,0s-1.6-1-.94-2.34,1.72-1.05,2.86-.5.93,2,.57,2.72-1.39,2.86-5.12,1-2.47-5.76-1.48-7.82a6.66,6.66,0,0,1,9-2.6c4.49,2.17,5.48,5.76,3.32,10.27s-7.73,7-18.64,6.66a3.19,3.19,0,0,0-2-3c-2-1-4.56.46-5.2,3.09h0l0,2.25h.1c.62,2.64,2.47,3.55,4.88,2.94a2.85,2.85,0,0,0,2.29-2.78c10.79-.84,15.79,1.88,17.56,6.56S986,37.19,981.3,39a6.67,6.67,0,0,1-8.78-3.37c-.8-2.14-1.53-6.22,2.34-7.69S979.71,29,980,29.83a1.7,1.7,0,0,1-1.13,2.25c-1.19.45-2.27.69-2.81-.74s1.13-2.25,1.13-2.25a1.09,1.09,0,0,0-1.58-.12c-.91.7-1.25,1.47-.65,3.06s2.22,2.51,4.43,1.67a3.48,3.48,0,0,0,2-4.76c-.69-1.82-3-4-7.39-2.35s-4.16,6.67-3.2,9.21,4.29,7.28,11.19,5c7.3-2.42,6.29-9.39,5.18-12.33S983,22,979,21.52c0,0,13.42-2,15.23,5.18,0,0,1.9-.73,2.05-2.24,0,0,4.8.95,6.11-3.72C1001.44,16,996.41,16.7,996.41,16.7ZM964.68,23s-1.79,1.36-2.75-1.18a2.44,2.44,0,0,1,1.5-3.34,2.19,2.19,0,0,1,2.48,1.32A2.18,2.18,0,0,1,964.68,23Zm30.65.09s0,.54-.93,1.17a5.68,5.68,0,0,0-5.4-3.66,7.26,7.26,0,0,0,5.65-3.55c.82.73.79,1.27.79,1.27a6.45,6.45,0,0,1,4.59,2.52A5.91,5.91,0,0,1,995.33,23.11Z"/><path class="cls-1" d="M0,20.74c1.31,4.67,6.11,3.72,6.11,3.72.15,1.51,2,2.24,2,2.24,1.82-7.21,15.24-5.18,15.24-5.18-4.06.45-7.12,4-8.23,6.94s-2.11,9.91,5.19,12.33c6.9,2.29,10.23-2.45,11.19-5s1.22-7.53-3.2-9.21-6.71.53-7.4,2.35a3.48,3.48,0,0,0,2,4.76c2.21.84,3.83-.09,4.43-1.67s.25-2.36-.65-3.06a1.11,1.11,0,0,0-1.59.12s1.68.82,1.14,2.25-1.62,1.19-2.81.74a1.7,1.7,0,0,1-1.14-2.25c.3-.79,1.29-3.41,5.16-1.93s3.14,5.55,2.33,7.69A6.66,6.66,0,0,1,21,39c-4.66-1.77-5.57-5.57-3.8-10.25S24,21.31,34.8,22.15a2.85,2.85,0,0,0,2.29,2.78c2.41.61,4.26-.3,4.88-2.94h.1l0-2.25H42c-.64-2.63-3.2-4.06-5.2-3.09a3.19,3.19,0,0,0-2.05,3C23.88,20,18.31,17.46,16.15,13S15,4.85,19.47,2.68a6.66,6.66,0,0,1,9,2.6c1,2.06,2.25,6-1.48,7.82s-4.75-.28-5.12-1-.57-2.17.57-2.72,2.2-.88,2.86.5-.94,2.34-.94,2.34a1.1,1.1,0,0,0,1.59,0c.84-.78,1.12-1.58.38-3.11s-2.42-2.31-4.55-1.28a3.48,3.48,0,0,0-1.58,4.91c.84,1.76,3.3,3.77,7.56,1.71s3.58-7,2.41-9.45-5.72-6.86-11.77-4c-6.27,3-5.82,9.67-3.92,12.72,1.66,2.66,4.71,6.1,8.78,6.2,0,0-13.08,1.47-15.51-5.55,0,0-1.83.88-1.85,2.4C5.93,16.7.9,16,0,20.74Zm36.43-.92a2.19,2.19,0,0,1,2.48-1.32,2.44,2.44,0,0,1,1.5,3.34c-1,2.54-2.75,1.18-2.75,1.18A2.18,2.18,0,0,1,36.43,19.82Zm-34.13,1a6.45,6.45,0,0,1,4.59-2.52s0-.54.8-1.27a7.24,7.24,0,0,0,5.65,3.55,5.7,5.7,0,0,0-5.41,3.66C7,23.65,7,23.11,7,23.11A5.92,5.92,0,0,1,2.3,20.86Z"/><line class="cls-2" x1="40.41" y1="20.7" x2="961.49" y2="20.7"/></g></g></svg>