<svg xmlns="http://www.w3.org/2000/svg" viewBox="0 0 989.7 22.62"><defs><style>.cls-1{fill:#f4954e;}.cls-2{fill:#fff;stroke:#f4954e;stroke-miterlimit:10;stroke-width:0.75px;}</style></defs><g id="Layer_2" data-name="Layer 2"><g id="graphics"><path class="cls-1" d="M493.46.34c-1.5,2.68-4.81,9.77.24,12.5a.64.64,0,0,0,.63,0c1.16-.65,4.71-3.5.3-12.47A.66.66,0,0,0,493.46.34Z"/><path class="cls-1" d="M504.14,7.21a1.62,1.62,0,0,1-.64,1.35,4.17,4.17,0,0,1-1.62.88c-.16.05-.36.09-.6.15l-.77.18a4.82,4.82,0,0,0-1.6.77,4.06,4.06,0,0,0-.65.66l-.13.18-.13.18-.21.36-.32.58c-.08.14-.15.23-.21.23s-.11-.09-.18-.25a1.6,1.6,0,0,1-.11-.29c0-.12-.07-.25-.09-.4s0-.32-.05-.5a2.61,2.61,0,0,1,0-.28v-.3a5,5,0,0,1,.32-1.33,5.12,5.12,0,0,1,.77-1.31A6.69,6.69,0,0,1,500,6.38a5,5,0,0,1,.82-.35,3.5,3.5,0,0,1,2.28,0A1.47,1.47,0,0,1,504.14,7.21Z"/><path class="cls-1" d="M501.74,17a.51.51,0,0,1,.28.35,1.08,1.08,0,0,1-.09.7,1.85,1.85,0,0,1-.75.78,2.23,2.23,0,0,1-1.28.29,2.68,2.68,0,0,1-.83-.2,3.16,3.16,0,0,1-.91-.56,3.63,3.63,0,0,1-.73-.87,3.81,3.81,0,0,1-.46-1,5.12,5.12,0,0,1-.16-1,2.94,2.94,0,0,1,0-.42,3.7,3.7,0,0,1,0-.37c0-.11,0-.21.05-.3a2.19,2.19,0,0,1,.07-.23c0-.12.08-.19.12-.19s.07.07.11.19l.19.47.13.3c.05.11.1.22.16.33a5.31,5.31,0,0,0,.43.66,3.13,3.13,0,0,0,.54.55,3.08,3.08,0,0,0,.58.35,2.08,2.08,0,0,0,.49.14H500l.39,0a1.9,1.9,0,0,0,.41,0A1.83,1.83,0,0,1,501.74,17Z"/><path class="cls-1" d="M496,17.79A11,11,0,0,1,495,14a0,0,0,0,0,0,0h-2l0,0a10.83,10.83,0,0,1-1.06,3.77s1.64,2.33,2,2.81a.09.09,0,0,0,.15,0C494.39,20.12,496,17.81,496,17.79Z"/><path class="cls-1" d="M483.61,7.21a1.65,1.65,0,0,0,.64,1.35,4.21,4.21,0,0,0,1.63.88c.15.05.36.09.59.15l.77.18a4.73,4.73,0,0,1,1.6.77,4.06,4.06,0,0,1,.65.66l.14.18.12.18.21.36.32.58c.08.14.16.23.21.23s.11-.09.18-.25a1.6,1.6,0,0,0,.11-.29,3.42,3.42,0,0,0,.09-.4,3.68,3.68,0,0,0,.05-.5c0-.09,0-.18,0-.28l0-.3a4.67,4.67,0,0,0-.32-1.33,5.12,5.12,0,0,0-.77-1.31,6.29,6.29,0,0,0-1.05-1,5.82,5.82,0,0,0-1-.67A5.41,5.41,0,0,0,486.9,6a3.5,3.5,0,0,0-2.28,0A1.49,1.49,0,0,0,483.61,7.21Z"/><path class="cls-1" d="M486,17a.5.5,0,0,0-.29.35,1.09,1.09,0,0,0,.1.7,1.76,1.76,0,0,0,.74.78,2.24,2.24,0,0,0,1.29.29,2.63,2.63,0,0,0,.82-.2,3,3,0,0,0,.91-.56,3.67,3.67,0,0,0,.74-.87,4.11,4.11,0,0,0,.45-1,4.48,4.48,0,0,0,.17-1v-.42c0-.14,0-.26,0-.37l-.06-.3a1,1,0,0,0-.07-.23c0-.12-.08-.19-.11-.19s-.07.07-.12.19l-.18.47c0,.09-.09.19-.13.3s-.11.22-.17.33a5.22,5.22,0,0,1-.42.66,3.57,3.57,0,0,1-.55.55,2.56,2.56,0,0,1-.58.35A1.85,1.85,0,0,1,488,17h-.32l-.4,0a1.92,1.92,0,0,1-.41,0A1.79,1.79,0,0,0,486,17Z"/><path class="cls-1" d="M524.26,8.21l.44-.37A8,8,0,0,1,526.12,7a7.53,7.53,0,0,1,2.56-.69,6.87,6.87,0,0,1,3.49.61,6.13,6.13,0,0,1,1.73,1.2A6.75,6.75,0,0,1,535.22,10a8.6,8.6,0,0,1,.71,2.34,9.3,9.3,0,0,1,.07,2.59,7.79,7.79,0,0,1-.8,2.65,8.37,8.37,0,0,1-1.74,2.3,10.47,10.47,0,0,1-5.34,2.64,8.92,8.92,0,0,1-1.55.12c-.26,0-.53,0-.79-.06l-.73-.13a20.71,20.71,0,0,1-2.79-.71,33.58,33.58,0,0,1-5-2.1c-3-1.56-5.64-3.15-7.91-4.3a32.68,32.68,0,0,0-3.11-1.45,7.27,7.27,0,0,0-2.5-.56,2.86,2.86,0,0,0-1.55.4,1.57,1.57,0,0,0-.34.25l-.11.09.1-.1a1.45,1.45,0,0,1,.33-.29,2.85,2.85,0,0,1,1.57-.52,7.25,7.25,0,0,1,2.61.38,32.27,32.27,0,0,1,3.25,1.28c2.36,1,5,2.51,8.09,3.95a37.4,37.4,0,0,0,4.87,1.92,22.93,22.93,0,0,0,2.66.64l.68.11c.22,0,.43,0,.66,0a7.65,7.65,0,0,0,1.34-.11,9.5,9.5,0,0,0,4.78-2.31A7.23,7.23,0,0,0,535,14.78a9.17,9.17,0,0,0,0-2.34,7.84,7.84,0,0,0-.56-2.14,5.93,5.93,0,0,0-1.09-1.72,5.7,5.7,0,0,0-1.5-1.17,6.64,6.64,0,0,0-3.21-.76,7.75,7.75,0,0,0-2.51.49,8.73,8.73,0,0,0-1.46.74Z"/><path class="cls-1" d="M524.13,16.64l-.23.08-.27.1a3.42,3.42,0,0,1-.4.09,7.75,7.75,0,0,1-2.56,0A23.7,23.7,0,0,1,512.78,14a44,44,0,0,0-4-2.12,10.86,10.86,0,0,0-3.51-.91,3.92,3.92,0,0,0-2.34.52l-.32.23c-.09.07-.15.15-.21.2l-.17.17.14-.2c.05-.06.1-.14.18-.23l.29-.28a4,4,0,0,1,2.43-.87,10,10,0,0,1,3.78.64,27.74,27.74,0,0,1,4.18,2.05,32.83,32.83,0,0,0,7.52,3.29,8.32,8.32,0,0,0,2.46.32c.14,0,.28,0,.39,0l.28-.06Z"/><path class="cls-1" d="M464.59,8.21l-.47-.33a8.34,8.34,0,0,0-1.46-.74,7.74,7.74,0,0,0-2.5-.49,6.62,6.62,0,0,0-3.21.76,5.54,5.54,0,0,0-1.5,1.17,6,6,0,0,0-1.1,1.72,7.83,7.83,0,0,0-.55,2.14,8.74,8.74,0,0,0,0,2.34,7.13,7.13,0,0,0,2.33,4.27,9.46,9.46,0,0,0,4.77,2.31,7.76,7.76,0,0,0,1.35.11c.22,0,.44,0,.65,0l.68-.11a23.09,23.09,0,0,0,2.67-.64,38,38,0,0,0,4.87-1.92c3-1.44,5.73-2.91,8.09-3.95a32.16,32.16,0,0,1,3.24-1.28,7.3,7.3,0,0,1,2.62-.38,2.88,2.88,0,0,1,1.57.52A1.6,1.6,0,0,1,487,14l.11.1L487,14a1.68,1.68,0,0,0-.35-.25,2.81,2.81,0,0,0-1.55-.4,7.27,7.27,0,0,0-2.49.56,30.54,30.54,0,0,0-3.11,1.45c-2.28,1.15-4.88,2.74-7.92,4.3a33.45,33.45,0,0,1-5,2.1,21.1,21.1,0,0,1-2.79.71l-.74.13q-.39,0-.78.06a9.11,9.11,0,0,1-1.56-.12,10.51,10.51,0,0,1-5.34-2.64,8.53,8.53,0,0,1-1.73-2.3,7.79,7.79,0,0,1-.8-2.65,9.7,9.7,0,0,1,.06-2.59,8.6,8.6,0,0,1,.71-2.34A6.78,6.78,0,0,1,455,8.1a6,6,0,0,1,1.73-1.2,6.85,6.85,0,0,1,3.49-.61,7.4,7.4,0,0,1,2.55.69,7.61,7.61,0,0,1,1.42.86C464.45,8.08,464.59,8.21,464.59,8.21Z"/><path class="cls-1" d="M464.73,16.64l.23,0,.29.06a3.89,3.89,0,0,0,.39,0,8.36,8.36,0,0,0,2.46-.32,33,33,0,0,0,7.52-3.29,27.65,27.65,0,0,1,4.17-2.05,10.08,10.08,0,0,1,3.79-.64,4,4,0,0,1,2.43.87l.28.28.19.23.14.2-.17-.17-.21-.2-.32-.23a4,4,0,0,0-2.35-.52,10.87,10.87,0,0,0-3.5.91,42.79,42.79,0,0,0-4,2.12,23.58,23.58,0,0,1-7.88,2.94,7.81,7.81,0,0,1-2.57,0,2.84,2.84,0,0,1-.39-.09l-.28-.1Z"/><path class="cls-1" d="M977.23,11.54l1,4.63a.28.28,0,0,1,0,.18l-1.09,4.36a.39.39,0,0,0,.57.43L981,19.28a13.68,13.68,0,0,1,3.57-1.43l4.82-1.18a.38.38,0,0,0,0-.74l-5.63-1.75a10.51,10.51,0,0,1-2.07-.89l-3.93-2.17A.39.39,0,0,0,977.23,11.54Z"/><path class="cls-1" d="M970.49,13.78a2.35,2.35,0,1,0,2.35,2.35A2.35,2.35,0,0,0,970.49,13.78Z"/><path class="cls-1" d="M541.09,13.78a2.35,2.35,0,1,0,2.35,2.35A2.35,2.35,0,0,0,541.09,13.78Z"/><line class="cls-2" x1="542.07" y1="16.13" x2="968.63" y2="16.13"/><path class="cls-1" d="M12.46,11.54l-1,4.63a.28.28,0,0,0,0,.18l1.09,4.36a.39.39,0,0,1-.57.43L8.69,19.28a13.82,13.82,0,0,0-3.57-1.43L.3,16.67a.38.38,0,0,1,0-.74l5.62-1.75A10.59,10.59,0,0,0,8,13.29l3.93-2.17A.38.38,0,0,1,12.46,11.54Z"/><path class="cls-1" d="M19.21,13.78a2.35,2.35,0,1,1-2.35,2.35A2.35,2.35,0,0,1,19.21,13.78Z"/><path class="cls-1" d="M448.61,13.78a2.35,2.35,0,1,1-2.35,2.35A2.35,2.35,0,0,1,448.61,13.78Z"/><line class="cls-2" x1="447.62" y1="16.13" x2="21.07" y2="16.13"/></g></g></svg>