<svg xmlns="http://www.w3.org/2000/svg" viewBox="0 0 61.85 74.94"><defs><style>.cls-1{fill:none;stroke:#fff;stroke-linecap:round;stroke-miterlimit:10;}</style></defs><g id="Layer_2" data-name="Layer 2"><g id="Layer_1-2" data-name="Layer 1"><path class="cls-1" d="M48.17,64v-1.4a4.75,4.75,0,0,1,1.39-3.36l7.91-7.91a3,3,0,0,0,.87-2.1V28.45h0a5.07,5.07,0,0,0-5.06,5.06l-.07,8.26"/><path class="cls-1" d="M48.49,50.27l7.18-7.18h0a4.83,4.83,0,0,0-6.84,0l-3.1,3.1s-12.35,4.13-10.53,18"/><rect class="cls-1" x="36.36" y="60.81" width="9.99" height="17.27" rx="1.68" transform="translate(-28.09 110.8) rotate(-90)"/><rect class="cls-1" x="14.79" y="60.81" width="9.99" height="17.27" rx="1.68" transform="translate(-49.66 89.23) rotate(-90)"/><path class="cls-1" d="M13.69,64v-1.4a4.75,4.75,0,0,0-1.39-3.36L4.39,51.35a3,3,0,0,1-.87-2.1V28.45h0a5.06,5.06,0,0,1,5.05,5.06l.08,8.26"/><path class="cls-1" d="M13.37,50.27,6.19,43.09h0a4.82,4.82,0,0,1,6.83,0l3.1,3.1s12.35,4.13,10.53,18"/><path class="cls-1" d="M33,4.91l3.18,6.44A2.28,2.28,0,0,0,37.9,12.6l7.11,1a2.3,2.3,0,0,1,1.27,3.92l-5.14,5a2.31,2.31,0,0,0-.66,2l1.21,7.08a2.3,2.3,0,0,1-3.34,2.42L32,30.77a2.31,2.31,0,0,0-2.14,0L23.5,34.11a2.3,2.3,0,0,1-3.34-2.42l1.22-7.08a2.31,2.31,0,0,0-.66-2l-5.15-5a2.3,2.3,0,0,1,1.28-3.92l7.1-1a2.31,2.31,0,0,0,1.74-1.25l3.17-6.44A2.3,2.3,0,0,1,33,4.91Z"/><line class="cls-1" x1="48.13" y1="7.98" x2="51.52" y2="0.5"/><line class="cls-1" x1="53.67" y1="13.13" x2="61.35" y2="10.24"/><line class="cls-1" x1="51.45" y1="20.45" x2="57.47" y2="22.62"/><line class="cls-1" x1="13.73" y1="8.81" x2="10.34" y2="1.33"/><line class="cls-1" x1="8.19" y1="13.96" x2="0.5" y2="11.06"/><line class="cls-1" x1="10.4" y1="21.27" x2="4.39" y2="23.44"/></g></g></svg>