<svg id="Layer_1" data-name="Layer 1" xmlns="http://www.w3.org/2000/svg" viewBox="0 0 61.85 74.94"><defs><style>.cls-1{fill:none;stroke:#fff;stroke-linecap:round;stroke-miterlimit:10;}</style></defs><path class="cls-1" d="M25.83,48.52a10.05,10.05,0,0,1-1.63,12l-5.9,5.89A10,10,0,0,1,4.12,52.26h0L10,46.37a10,10,0,0,1,11.52-1.91"/><path class="cls-1" d="M22.2,52.15A5.63,5.63,0,0,1,22.49,54a5.81,5.81,0,0,1-1.73,4.17L15.91,63a5.9,5.9,0,0,1-8.34-8.35l4.87-4.87a5.88,5.88,0,0,1,5.37-1.6"/><path class="cls-1" d="M16.14,54h-.05a2.87,2.87,0,0,1,0-4.05h0l6.34-6.34c.76-.76,1.42-.61,2.17-.73,3.28-.55,1.12,2.47,1.12,2.47a.19.19,0,0,0,.17.21H26c2.22-.44,3.16-.27,2,.84L20.32,54A3,3,0,0,1,16.14,54Z"/><path class="cls-1" d="M32.51,37.91a10.06,10.06,0,0,1,7.56-9.51l8.08-2A10,10,0,1,1,53.08,45.8L45,47.8a10,10,0,0,1-10.88-4.25"/><path class="cls-1" d="M37.48,36.65a5.91,5.91,0,0,1,4.31-4.42l6.68-1.7A5.93,5.93,0,1,1,51.37,42l-6.68,1.7a5.93,5.93,0,0,1-5.43-1.37"/><path class="cls-1" d="M43.65,38.13v.07a2.85,2.85,0,0,1-2.06,3.49h0l-8.67,2.21c-1,.26-1.54-.21-2.25-.48-3.1-1.21.31-2.7.31-2.7a.19.19,0,0,0,0-.27l-.05,0c-2.14-.76-2.86-1.39-1.34-1.78L40.06,36a2.94,2.94,0,0,1,3.59,2.1Z"/><line class="cls-1" x1="29.71" y1="25.54" x2="29.39" y2="32.04"/><line class="cls-1" x1="14.21" y1="37.61" x2="20.64" y2="38.62"/><line class="cls-1" x1="18.59" y1="24.51" x2="24.35" y2="35.8"/></svg>